<svg width="351" height="54" viewBox="0 0 351 54" fill="none" xmlns="http://www.w3.org/2000/svg">
<path d="M26.3586 53.3C17.0086 53.3 10.0836 50.65 5.58359 45.35C3.98359 43.45 2.68359 40.925 1.68359 37.775C0.683594 34.625 0.183594 30.8 0.183594 26.3C0.183594 21.8 0.908594 17.775 2.35859 14.225C3.85859 10.625 5.88359 7.85 8.43359 5.9C13.3836 2.25 19.3586 0.424997 26.3586 0.424997C28.3586 0.424997 30.3086 0.599998 32.2086 0.95C34.1086 1.25 35.5336 1.575 36.4836 1.925L37.8336 2.45L37.6086 3.2C34.2086 1.85 30.4586 1.175 26.3586 1.175C21.0586 1.175 16.6336 2.9 13.0836 6.35C10.3836 8.9 8.48359 12.65 7.38359 17.6C6.73359 20.4 6.40859 23.825 6.40859 27.875C6.40859 31.925 6.98359 35.675 8.13359 39.125C9.28359 42.525 10.5836 45.05 12.0336 46.7C13.5336 48.35 15.3336 49.675 17.4336 50.675C19.5336 51.625 21.2086 52.175 22.4586 52.325C23.7086 52.475 25.2086 52.55 26.9586 52.55C28.7586 52.55 30.7836 52.375 33.0336 52.025C35.2836 51.675 36.9836 51.35 38.1336 51.05L39.8586 50.525L40.0836 51.275C36.2836 52.625 31.7086 53.3 26.3586 53.3ZM50.2373 28.025C50.2373 18.925 52.4373 12.025 56.8373 7.325C61.2873 2.575 66.9873 0.199996 73.9373 0.199996C80.8873 0.199996 86.4123 2.25 90.5123 6.35C94.6623 10.45 96.7373 17 96.7373 26C96.7373 35 94.5373 41.8 90.1373 46.4C85.7373 51 79.8623 53.3 72.5123 53.3C66.1623 53.3 60.9623 51.475 56.9123 47.825C54.8123 45.925 53.1623 43.3 51.9623 39.95C50.8123 36.55 50.2373 32.575 50.2373 28.025ZM73.7123 0.95C68.6623 0.95 64.5123 3.2 61.2623 7.7C58.0623 12.2 56.4623 18.8 56.4623 27.5C56.4623 36.2 57.9873 42.55 61.0373 46.55C64.0873 50.55 68.1373 52.55 73.1873 52.55C78.2873 52.55 82.4373 50.3 85.6373 45.8C88.8873 41.25 90.5123 34.675 90.5123 26.075C90.5123 17.425 88.9623 11.075 85.8623 7.025C82.8123 2.975 78.7623 0.95 73.7123 0.95ZM110.984 28.025C110.984 18.925 113.184 12.025 117.584 7.325C122.034 2.575 127.734 0.199996 134.684 0.199996C141.634 0.199996 147.159 2.25 151.259 6.35C155.409 10.45 157.484 17 157.484 26C157.484 35 155.284 41.8 150.884 46.4C146.484 51 140.609 53.3 133.259 53.3C126.909 53.3 121.709 51.475 117.659 47.825C115.559 45.925 113.909 43.3 112.709 39.95C111.559 36.55 110.984 32.575 110.984 28.025ZM134.459 0.95C129.409 0.95 125.259 3.2 122.009 7.7C118.809 12.2 117.209 18.8 117.209 27.5C117.209 36.2 118.734 42.55 121.784 46.55C124.834 50.55 128.884 52.55 133.934 52.55C139.034 52.55 143.184 50.3 146.384 45.8C149.634 41.25 151.259 34.675 151.259 26.075C151.259 17.425 149.709 11.075 146.609 7.025C143.559 2.975 139.509 0.95 134.459 0.95ZM179.456 0.499996V33.65L203.681 0.499996L204.281 1.025L190.856 19.325L210.806 53H203.831L187.031 24.575L179.456 35V53H173.231V0.499996H179.456ZM225.775 1.25V0.499996H239.125V1.25H235.45V52.25H239.125V53H225.775V52.25H229.225V1.25H225.775ZM257.752 53H256.777V0.499996H259.327L290.527 49.025V0.499996H291.502V53H286.027L257.752 9.5V53ZM333.785 53.3C324.435 53.3 317.51 50.65 313.01 45.35C311.41 43.45 310.11 40.925 309.11 37.775C308.11 34.625 307.61 30.8 307.61 26.3C307.61 21.8 308.335 17.775 309.785 14.225C311.285 10.625 313.31 7.85 315.86 5.9C320.81 2.25 326.785 0.424997 333.785 0.424997C336.035 0.424997 338.235 0.599998 340.385 0.95C342.535 1.25 344.135 1.575 345.185 1.925L346.76 2.45L346.535 3.2C342.635 1.85 338.385 1.175 333.785 1.175C328.485 1.175 324.06 2.9 320.51 6.35C317.81 8.9 315.91 12.65 314.81 17.6C314.16 20.4 313.835 23.825 313.835 27.875C313.835 31.925 314.41 35.675 315.56 39.125C316.71 42.525 318.01 45.05 319.46 46.7C320.96 48.35 322.76 49.675 324.86 50.675C326.96 51.625 328.635 52.175 329.885 52.325C331.135 52.475 332.61 52.55 334.31 52.55C336.06 52.55 338.385 52.35 341.285 51.95V36.5H332.21V35.75H350.735V36.5H347.51V51.275C343.71 52.625 339.135 53.3 333.785 53.3Z" fill="black"/>
</svg>
